<mxfile host="app.diagrams.net" agent="Mozilla/5.0 (Windows NT 10.0; Win64; x64; rv:139.0) Gecko/20100101 Firefox/139.0" version="27.0.6">
  <diagram name="Página-1" id="4wmt6wk9KiucF9GbgIPQ">
    <mxGraphModel dx="969" dy="1703" grid="1" gridSize="10" guides="1" tooltips="1" connect="1" arrows="1" fold="1" page="1" pageScale="1" pageWidth="827" pageHeight="1169" math="0" shadow="0">
      <root>
        <mxCell id="0" />
        <mxCell id="1" parent="0" />
        <mxCell id="VZRRbTIA94rRxhNmFZnI-1" value="Juego" style="rounded=0;whiteSpace=wrap;html=1;" vertex="1" parent="1">
          <mxGeometry y="400" width="120" height="40" as="geometry" />
        </mxCell>
        <mxCell id="VZRRbTIA94rRxhNmFZnI-2" value="Gráficos" style="rounded=0;whiteSpace=wrap;html=1;" vertex="1" parent="1">
          <mxGeometry x="260" y="400" width="120" height="40" as="geometry" />
        </mxCell>
        <mxCell id="VZRRbTIA94rRxhNmFZnI-3" value="Música" style="rounded=0;whiteSpace=wrap;html=1;dashed=1;" vertex="1" parent="1">
          <mxGeometry x="260" y="680" width="120" height="40" as="geometry" />
        </mxCell>
        <mxCell id="VZRRbTIA94rRxhNmFZnI-4" value="Cinemáticas" style="rounded=0;whiteSpace=wrap;html=1;dashed=1;" vertex="1" parent="1">
          <mxGeometry x="260" y="920" width="120" height="40" as="geometry" />
        </mxCell>
        <mxCell id="VZRRbTIA94rRxhNmFZnI-6" value="" style="endArrow=classic;html=1;rounded=0;exitX=1;exitY=0.5;exitDx=0;exitDy=0;entryX=0;entryY=0.5;entryDx=0;entryDy=0;" edge="1" parent="1" source="VZRRbTIA94rRxhNmFZnI-1" target="VZRRbTIA94rRxhNmFZnI-3">
          <mxGeometry width="50" height="50" relative="1" as="geometry">
            <mxPoint x="250" y="450" as="sourcePoint" />
            <mxPoint x="300" y="400" as="targetPoint" />
          </mxGeometry>
        </mxCell>
        <mxCell id="VZRRbTIA94rRxhNmFZnI-7" value="" style="endArrow=classic;html=1;rounded=0;exitX=1;exitY=0.5;exitDx=0;exitDy=0;" edge="1" parent="1" source="VZRRbTIA94rRxhNmFZnI-1" target="VZRRbTIA94rRxhNmFZnI-2">
          <mxGeometry width="50" height="50" relative="1" as="geometry">
            <mxPoint x="210" y="420" as="sourcePoint" />
            <mxPoint x="310" y="460" as="targetPoint" />
          </mxGeometry>
        </mxCell>
        <mxCell id="VZRRbTIA94rRxhNmFZnI-9" value="" style="endArrow=classic;html=1;rounded=0;exitX=1;exitY=0.5;exitDx=0;exitDy=0;entryX=0;entryY=0.5;entryDx=0;entryDy=0;" edge="1" parent="1" source="VZRRbTIA94rRxhNmFZnI-1" target="VZRRbTIA94rRxhNmFZnI-4">
          <mxGeometry width="50" height="50" relative="1" as="geometry">
            <mxPoint x="260" y="420" as="sourcePoint" />
            <mxPoint x="340" y="420" as="targetPoint" />
          </mxGeometry>
        </mxCell>
        <mxCell id="VZRRbTIA94rRxhNmFZnI-12" value="Música de Battalla" style="rounded=1;whiteSpace=wrap;html=1;" vertex="1" parent="1">
          <mxGeometry x="540" y="640" width="80" height="40" as="geometry" />
        </mxCell>
        <mxCell id="VZRRbTIA94rRxhNmFZnI-13" value="Música de Ambiente" style="rounded=1;whiteSpace=wrap;html=1;" vertex="1" parent="1">
          <mxGeometry x="540" y="720" width="80" height="40" as="geometry" />
        </mxCell>
        <mxCell id="VZRRbTIA94rRxhNmFZnI-14" value="Música de Cinematica" style="rounded=1;whiteSpace=wrap;html=1;" vertex="1" parent="1">
          <mxGeometry x="540" y="800" width="80" height="40" as="geometry" />
        </mxCell>
        <mxCell id="VZRRbTIA94rRxhNmFZnI-15" value="Mecánicas" style="rounded=0;whiteSpace=wrap;html=1;" vertex="1" parent="1">
          <mxGeometry x="260" y="40" width="120" height="40" as="geometry" />
        </mxCell>
        <mxCell id="VZRRbTIA94rRxhNmFZnI-16" value="" style="endArrow=classic;html=1;rounded=0;exitX=1;exitY=0.5;exitDx=0;exitDy=0;entryX=0;entryY=0.5;entryDx=0;entryDy=0;" edge="1" parent="1" source="VZRRbTIA94rRxhNmFZnI-1" target="VZRRbTIA94rRxhNmFZnI-15">
          <mxGeometry width="50" height="50" relative="1" as="geometry">
            <mxPoint x="290" y="510" as="sourcePoint" />
            <mxPoint x="380" y="528" as="targetPoint" />
          </mxGeometry>
        </mxCell>
        <mxCell id="VZRRbTIA94rRxhNmFZnI-17" value="Implementación" style="rounded=1;whiteSpace=wrap;html=1;" vertex="1" parent="1">
          <mxGeometry x="420" y="638" width="80" height="40" as="geometry" />
        </mxCell>
        <mxCell id="VZRRbTIA94rRxhNmFZnI-18" value="" style="endArrow=classic;html=1;rounded=0;exitX=1;exitY=0.5;exitDx=0;exitDy=0;entryX=0;entryY=0.5;entryDx=0;entryDy=0;" edge="1" parent="1" source="VZRRbTIA94rRxhNmFZnI-3" target="VZRRbTIA94rRxhNmFZnI-17">
          <mxGeometry width="50" height="50" relative="1" as="geometry">
            <mxPoint x="380" y="725" as="sourcePoint" />
            <mxPoint x="430" y="675" as="targetPoint" />
          </mxGeometry>
        </mxCell>
        <mxCell id="VZRRbTIA94rRxhNmFZnI-19" value="Assets" style="rounded=1;whiteSpace=wrap;html=1;" vertex="1" parent="1">
          <mxGeometry x="420" y="720" width="80" height="40" as="geometry" />
        </mxCell>
        <mxCell id="VZRRbTIA94rRxhNmFZnI-20" value="" style="endArrow=classic;html=1;rounded=0;exitX=1;exitY=0.5;exitDx=0;exitDy=0;entryX=0;entryY=0.5;entryDx=0;entryDy=0;" edge="1" parent="1" source="VZRRbTIA94rRxhNmFZnI-19" target="VZRRbTIA94rRxhNmFZnI-12">
          <mxGeometry width="50" height="50" relative="1" as="geometry">
            <mxPoint x="620" y="765" as="sourcePoint" />
            <mxPoint x="670" y="715" as="targetPoint" />
          </mxGeometry>
        </mxCell>
        <mxCell id="VZRRbTIA94rRxhNmFZnI-21" value="" style="endArrow=classic;html=1;rounded=0;" edge="1" parent="1" source="VZRRbTIA94rRxhNmFZnI-19" target="VZRRbTIA94rRxhNmFZnI-13">
          <mxGeometry width="50" height="50" relative="1" as="geometry">
            <mxPoint x="590" y="845" as="sourcePoint" />
            <mxPoint x="670" y="805" as="targetPoint" />
          </mxGeometry>
        </mxCell>
        <mxCell id="VZRRbTIA94rRxhNmFZnI-22" value="" style="endArrow=classic;html=1;rounded=0;exitX=1;exitY=0.5;exitDx=0;exitDy=0;entryX=0;entryY=0.5;entryDx=0;entryDy=0;" edge="1" parent="1" source="VZRRbTIA94rRxhNmFZnI-19" target="VZRRbTIA94rRxhNmFZnI-14">
          <mxGeometry width="50" height="50" relative="1" as="geometry">
            <mxPoint x="570" y="805" as="sourcePoint" />
            <mxPoint x="637" y="805" as="targetPoint" />
          </mxGeometry>
        </mxCell>
        <mxCell id="VZRRbTIA94rRxhNmFZnI-23" value="" style="endArrow=classic;html=1;rounded=0;exitX=1;exitY=0.5;exitDx=0;exitDy=0;entryX=0;entryY=0.5;entryDx=0;entryDy=0;" edge="1" parent="1" source="VZRRbTIA94rRxhNmFZnI-3" target="VZRRbTIA94rRxhNmFZnI-88">
          <mxGeometry width="50" height="50" relative="1" as="geometry">
            <mxPoint x="470" y="752" as="sourcePoint" />
            <mxPoint x="550" y="735" as="targetPoint" />
          </mxGeometry>
        </mxCell>
        <mxCell id="VZRRbTIA94rRxhNmFZnI-24" value="" style="endArrow=classic;html=1;rounded=0;exitX=1;exitY=0.5;exitDx=0;exitDy=0;entryX=0;entryY=0.5;entryDx=0;entryDy=0;" edge="1" parent="1" source="VZRRbTIA94rRxhNmFZnI-2" target="VZRRbTIA94rRxhNmFZnI-26">
          <mxGeometry width="50" height="50" relative="1" as="geometry">
            <mxPoint x="330" y="510" as="sourcePoint" />
            <mxPoint x="470" y="380" as="targetPoint" />
          </mxGeometry>
        </mxCell>
        <mxCell id="VZRRbTIA94rRxhNmFZnI-26" value="Sprites" style="rounded=1;whiteSpace=wrap;html=1;" vertex="1" parent="1">
          <mxGeometry x="420" y="230" width="80" height="40" as="geometry" />
        </mxCell>
        <mxCell id="VZRRbTIA94rRxhNmFZnI-27" value="Interfaz" style="rounded=1;whiteSpace=wrap;html=1;" vertex="1" parent="1">
          <mxGeometry x="420" y="400" width="80" height="40" as="geometry" />
        </mxCell>
        <mxCell id="VZRRbTIA94rRxhNmFZnI-28" value="Implementación General" style="rounded=1;whiteSpace=wrap;html=1;" vertex="1" parent="1">
          <mxGeometry x="420" y="560" width="80" height="40" as="geometry" />
        </mxCell>
        <mxCell id="VZRRbTIA94rRxhNmFZnI-29" value="" style="endArrow=classic;html=1;rounded=0;" edge="1" parent="1" source="VZRRbTIA94rRxhNmFZnI-2" target="VZRRbTIA94rRxhNmFZnI-27">
          <mxGeometry width="50" height="50" relative="1" as="geometry">
            <mxPoint x="490" y="430" as="sourcePoint" />
            <mxPoint x="580" y="430" as="targetPoint" />
          </mxGeometry>
        </mxCell>
        <mxCell id="VZRRbTIA94rRxhNmFZnI-30" value="" style="endArrow=classic;html=1;rounded=0;exitX=1;exitY=0.5;exitDx=0;exitDy=0;entryX=0;entryY=0.5;entryDx=0;entryDy=0;" edge="1" parent="1" source="VZRRbTIA94rRxhNmFZnI-2" target="VZRRbTIA94rRxhNmFZnI-28">
          <mxGeometry width="50" height="50" relative="1" as="geometry">
            <mxPoint x="520" y="481" as="sourcePoint" />
            <mxPoint x="640" y="460" as="targetPoint" />
          </mxGeometry>
        </mxCell>
        <mxCell id="VZRRbTIA94rRxhNmFZnI-31" value="" style="endArrow=classic;html=1;rounded=0;exitX=1;exitY=0.5;exitDx=0;exitDy=0;entryX=0;entryY=0.5;entryDx=0;entryDy=0;" edge="1" parent="1" source="VZRRbTIA94rRxhNmFZnI-26" target="VZRRbTIA94rRxhNmFZnI-32">
          <mxGeometry width="50" height="50" relative="1" as="geometry">
            <mxPoint x="690" y="381" as="sourcePoint" />
            <mxPoint x="650" y="250" as="targetPoint" />
          </mxGeometry>
        </mxCell>
        <mxCell id="VZRRbTIA94rRxhNmFZnI-32" value="Implementacion" style="rounded=1;whiteSpace=wrap;html=1;" vertex="1" parent="1">
          <mxGeometry x="540" y="190" width="80" height="40" as="geometry" />
        </mxCell>
        <mxCell id="VZRRbTIA94rRxhNmFZnI-33" value="Assets Graficos" style="rounded=1;whiteSpace=wrap;html=1;" vertex="1" parent="1">
          <mxGeometry x="540" y="270" width="80" height="40" as="geometry" />
        </mxCell>
        <mxCell id="VZRRbTIA94rRxhNmFZnI-34" value="" style="endArrow=classic;html=1;rounded=0;exitX=1;exitY=0.5;exitDx=0;exitDy=0;entryX=0;entryY=0.5;entryDx=0;entryDy=0;" edge="1" parent="1" source="VZRRbTIA94rRxhNmFZnI-26" target="VZRRbTIA94rRxhNmFZnI-33">
          <mxGeometry width="50" height="50" relative="1" as="geometry">
            <mxPoint x="710" y="356" as="sourcePoint" />
            <mxPoint x="777" y="340" as="targetPoint" />
          </mxGeometry>
        </mxCell>
        <mxCell id="VZRRbTIA94rRxhNmFZnI-35" value="Implementacion" style="rounded=1;whiteSpace=wrap;html=1;" vertex="1" parent="1">
          <mxGeometry x="540" y="320" width="80" height="40" as="geometry" />
        </mxCell>
        <mxCell id="VZRRbTIA94rRxhNmFZnI-36" value="Assets Graficos" style="rounded=1;whiteSpace=wrap;html=1;" vertex="1" parent="1">
          <mxGeometry x="540" y="400" width="80" height="40" as="geometry" />
        </mxCell>
        <mxCell id="VZRRbTIA94rRxhNmFZnI-37" value="" style="endArrow=classic;html=1;rounded=0;exitX=1;exitY=0.5;exitDx=0;exitDy=0;entryX=0;entryY=0.5;entryDx=0;entryDy=0;" edge="1" parent="1" source="VZRRbTIA94rRxhNmFZnI-27" target="VZRRbTIA94rRxhNmFZnI-35">
          <mxGeometry width="50" height="50" relative="1" as="geometry">
            <mxPoint x="600" y="500" as="sourcePoint" />
            <mxPoint x="640" y="514" as="targetPoint" />
          </mxGeometry>
        </mxCell>
        <mxCell id="VZRRbTIA94rRxhNmFZnI-38" value="" style="endArrow=classic;html=1;rounded=0;" edge="1" parent="1" source="VZRRbTIA94rRxhNmFZnI-27" target="VZRRbTIA94rRxhNmFZnI-36">
          <mxGeometry width="50" height="50" relative="1" as="geometry">
            <mxPoint x="660" y="560" as="sourcePoint" />
            <mxPoint x="830" y="594" as="targetPoint" />
          </mxGeometry>
        </mxCell>
        <mxCell id="VZRRbTIA94rRxhNmFZnI-39" value="" style="endArrow=classic;html=1;rounded=0;exitX=1;exitY=0.5;exitDx=0;exitDy=0;entryX=0;entryY=0.5;entryDx=0;entryDy=0;" edge="1" parent="1" source="VZRRbTIA94rRxhNmFZnI-27" target="VZRRbTIA94rRxhNmFZnI-40">
          <mxGeometry width="50" height="50" relative="1" as="geometry">
            <mxPoint x="670" y="580" as="sourcePoint" />
            <mxPoint x="640" y="540" as="targetPoint" />
          </mxGeometry>
        </mxCell>
        <mxCell id="VZRRbTIA94rRxhNmFZnI-40" value="Fuentes" style="rounded=1;whiteSpace=wrap;html=1;" vertex="1" parent="1">
          <mxGeometry x="540" y="480" width="80" height="40" as="geometry" />
        </mxCell>
        <mxCell id="VZRRbTIA94rRxhNmFZnI-42" value="Estadisticas" style="rounded=1;whiteSpace=wrap;html=1;" vertex="1" parent="1">
          <mxGeometry x="540" width="80" height="40" as="geometry" />
        </mxCell>
        <mxCell id="VZRRbTIA94rRxhNmFZnI-43" value="Personaje" style="rounded=1;whiteSpace=wrap;html=1;" vertex="1" parent="1">
          <mxGeometry x="420" y="40" width="80" height="40" as="geometry" />
        </mxCell>
        <mxCell id="VZRRbTIA94rRxhNmFZnI-44" value="Tipos" style="rounded=1;whiteSpace=wrap;html=1;" vertex="1" parent="1">
          <mxGeometry x="540" y="80" width="80" height="40" as="geometry" />
        </mxCell>
        <mxCell id="VZRRbTIA94rRxhNmFZnI-45" value="" style="endArrow=classic;html=1;rounded=0;entryX=0;entryY=0.5;entryDx=0;entryDy=0;" edge="1" parent="1" source="VZRRbTIA94rRxhNmFZnI-43" target="VZRRbTIA94rRxhNmFZnI-42">
          <mxGeometry width="50" height="50" relative="1" as="geometry">
            <mxPoint x="490" y="90" as="sourcePoint" />
            <mxPoint x="540" y="40" as="targetPoint" />
          </mxGeometry>
        </mxCell>
        <mxCell id="VZRRbTIA94rRxhNmFZnI-46" value="" style="endArrow=classic;html=1;rounded=0;entryX=0;entryY=0.5;entryDx=0;entryDy=0;" edge="1" parent="1" source="VZRRbTIA94rRxhNmFZnI-43" target="VZRRbTIA94rRxhNmFZnI-44">
          <mxGeometry width="50" height="50" relative="1" as="geometry">
            <mxPoint x="570" y="164" as="sourcePoint" />
            <mxPoint x="610" y="150" as="targetPoint" />
          </mxGeometry>
        </mxCell>
        <mxCell id="VZRRbTIA94rRxhNmFZnI-51" value="Subir de Nivel" style="rounded=1;whiteSpace=wrap;html=1;" vertex="1" parent="1">
          <mxGeometry x="660" width="80" height="40" as="geometry" />
        </mxCell>
        <mxCell id="VZRRbTIA94rRxhNmFZnI-52" value="" style="endArrow=classic;html=1;rounded=0;" edge="1" parent="1" source="VZRRbTIA94rRxhNmFZnI-42" target="VZRRbTIA94rRxhNmFZnI-51">
          <mxGeometry width="50" height="50" relative="1" as="geometry">
            <mxPoint x="570" y="74" as="sourcePoint" />
            <mxPoint x="610" y="60" as="targetPoint" />
          </mxGeometry>
        </mxCell>
        <mxCell id="VZRRbTIA94rRxhNmFZnI-53" value="" style="endArrow=classic;html=1;rounded=0;" edge="1" parent="1" source="VZRRbTIA94rRxhNmFZnI-15" target="VZRRbTIA94rRxhNmFZnI-43">
          <mxGeometry width="50" height="50" relative="1" as="geometry">
            <mxPoint x="420" y="200" as="sourcePoint" />
            <mxPoint x="470" y="150" as="targetPoint" />
          </mxGeometry>
        </mxCell>
        <mxCell id="VZRRbTIA94rRxhNmFZnI-55" value="Secuencias" style="rounded=1;whiteSpace=wrap;html=1;" vertex="1" parent="1">
          <mxGeometry x="420" y="880" width="80" height="40" as="geometry" />
        </mxCell>
        <mxCell id="VZRRbTIA94rRxhNmFZnI-56" value="Historia" style="rounded=1;whiteSpace=wrap;html=1;" vertex="1" parent="1">
          <mxGeometry x="420" y="960" width="80" height="40" as="geometry" />
        </mxCell>
        <mxCell id="VZRRbTIA94rRxhNmFZnI-57" value="" style="endArrow=classic;html=1;rounded=0;exitX=1;exitY=0.5;exitDx=0;exitDy=0;entryX=-0.012;entryY=0.6;entryDx=0;entryDy=0;entryPerimeter=0;" edge="1" parent="1" source="VZRRbTIA94rRxhNmFZnI-4" target="VZRRbTIA94rRxhNmFZnI-55">
          <mxGeometry width="50" height="50" relative="1" as="geometry">
            <mxPoint x="440" y="840" as="sourcePoint" />
            <mxPoint x="490" y="790" as="targetPoint" />
          </mxGeometry>
        </mxCell>
        <mxCell id="VZRRbTIA94rRxhNmFZnI-58" value="" style="endArrow=classic;html=1;rounded=0;exitX=1;exitY=0.5;exitDx=0;exitDy=0;entryX=0;entryY=0.5;entryDx=0;entryDy=0;" edge="1" parent="1" source="VZRRbTIA94rRxhNmFZnI-4" target="VZRRbTIA94rRxhNmFZnI-56">
          <mxGeometry width="50" height="50" relative="1" as="geometry">
            <mxPoint x="470" y="1002" as="sourcePoint" />
            <mxPoint x="440" y="980" as="targetPoint" />
          </mxGeometry>
        </mxCell>
        <mxCell id="VZRRbTIA94rRxhNmFZnI-59" value="Pelan Manifestaciones" style="text;html=1;align=center;verticalAlign=middle;whiteSpace=wrap;rounded=0;" vertex="1" parent="1">
          <mxGeometry x="430" y="90" width="60" height="30" as="geometry" />
        </mxCell>
        <mxCell id="VZRRbTIA94rRxhNmFZnI-60" value="Son como STANDS" style="text;html=1;align=center;verticalAlign=middle;whiteSpace=wrap;rounded=0;" vertex="1" parent="1">
          <mxGeometry x="430" y="120" width="60" height="30" as="geometry" />
        </mxCell>
        <mxCell id="VZRRbTIA94rRxhNmFZnI-62" value="&lt;div&gt;Demonio del Crucifijo:&lt;/div&gt;&lt;div&gt;1, con 3&amp;nbsp; tipos, centrados en Defensa, Velocidad y Ataque&lt;/div&gt;" style="text;html=1;align=center;verticalAlign=middle;whiteSpace=wrap;rounded=0;" vertex="1" parent="1">
          <mxGeometry x="850" y="80" width="160" height="40" as="geometry" />
        </mxCell>
        <mxCell id="VZRRbTIA94rRxhNmFZnI-63" value="&lt;div align=&quot;center&quot;&gt;Ataque&lt;/div&gt;&lt;div align=&quot;center&quot;&gt;Velocidad&lt;/div&gt;&lt;div align=&quot;center&quot;&gt;Vida&lt;/div&gt;&lt;div align=&quot;center&quot;&gt;Defensa&lt;/div&gt;&lt;div align=&quot;center&quot;&gt;Suerte&lt;/div&gt;" style="text;html=1;align=center;verticalAlign=middle;whiteSpace=wrap;rounded=0;" vertex="1" parent="1">
          <mxGeometry x="550" y="-80" width="60" height="70" as="geometry" />
        </mxCell>
        <mxCell id="VZRRbTIA94rRxhNmFZnI-64" value="Sube de nivel después de cada batalla" style="text;html=1;align=center;verticalAlign=middle;whiteSpace=wrap;rounded=0;" vertex="1" parent="1">
          <mxGeometry x="655" y="-80" width="90" height="70" as="geometry" />
        </mxCell>
        <mxCell id="VZRRbTIA94rRxhNmFZnI-66" value="Combate" style="rounded=1;whiteSpace=wrap;html=1;" vertex="1" parent="1">
          <mxGeometry x="440" y="-120" width="80" height="40" as="geometry" />
        </mxCell>
        <mxCell id="VZRRbTIA94rRxhNmFZnI-67" value="" style="endArrow=classic;html=1;rounded=0;exitX=1;exitY=0.5;exitDx=0;exitDy=0;entryX=0;entryY=0.5;entryDx=0;entryDy=0;" edge="1" parent="1" source="VZRRbTIA94rRxhNmFZnI-15" target="VZRRbTIA94rRxhNmFZnI-66">
          <mxGeometry width="50" height="50" relative="1" as="geometry">
            <mxPoint x="490" y="140" as="sourcePoint" />
            <mxPoint x="530" y="140" as="targetPoint" />
          </mxGeometry>
        </mxCell>
        <mxCell id="VZRRbTIA94rRxhNmFZnI-68" value="En tiempo real" style="text;html=1;align=center;verticalAlign=middle;whiteSpace=wrap;rounded=0;" vertex="1" parent="1">
          <mxGeometry x="440" y="-190" width="80" height="30" as="geometry" />
        </mxCell>
        <mxCell id="VZRRbTIA94rRxhNmFZnI-71" value="No hay input del jugador" style="text;html=1;align=center;verticalAlign=middle;whiteSpace=wrap;rounded=0;" vertex="1" parent="1">
          <mxGeometry x="440" y="-160" width="80" height="30" as="geometry" />
        </mxCell>
        <mxCell id="VZRRbTIA94rRxhNmFZnI-74" value="Balance" style="rounded=1;whiteSpace=wrap;html=1;" vertex="1" parent="1">
          <mxGeometry x="560" y="-160" width="80" height="40" as="geometry" />
        </mxCell>
        <mxCell id="VZRRbTIA94rRxhNmFZnI-75" value="" style="endArrow=classic;html=1;rounded=0;entryX=0;entryY=0.5;entryDx=0;entryDy=0;exitX=1;exitY=0.5;exitDx=0;exitDy=0;" edge="1" parent="1" source="VZRRbTIA94rRxhNmFZnI-66" target="VZRRbTIA94rRxhNmFZnI-74">
          <mxGeometry width="50" height="50" relative="1" as="geometry">
            <mxPoint x="590" y="90" as="sourcePoint" />
            <mxPoint x="630" y="70" as="targetPoint" />
          </mxGeometry>
        </mxCell>
        <mxCell id="VZRRbTIA94rRxhNmFZnI-76" value="Jugadores" style="rounded=1;whiteSpace=wrap;html=1;" vertex="1" parent="1">
          <mxGeometry x="680" y="80" width="80" height="40" as="geometry" />
        </mxCell>
        <mxCell id="VZRRbTIA94rRxhNmFZnI-77" value="" style="endArrow=classic;html=1;rounded=0;entryX=0;entryY=0.5;entryDx=0;entryDy=0;exitX=1;exitY=0.5;exitDx=0;exitDy=0;" edge="1" parent="1" source="VZRRbTIA94rRxhNmFZnI-44" target="VZRRbTIA94rRxhNmFZnI-76">
          <mxGeometry width="50" height="50" relative="1" as="geometry">
            <mxPoint x="680" y="170" as="sourcePoint" />
            <mxPoint x="720" y="170" as="targetPoint" />
          </mxGeometry>
        </mxCell>
        <mxCell id="VZRRbTIA94rRxhNmFZnI-79" value="&lt;div align=&quot;left&quot;&gt;Monaguillos - Mini-Angeles: Habilidad de Curarse&lt;/div&gt;&lt;div&gt;- Oscuro: Roba Vida&lt;/div&gt;&lt;div&gt;- Bueno: Gana Vida&lt;/div&gt;&lt;div&gt;- Lazaro: Resucita&lt;/div&gt;" style="text;html=1;align=center;verticalAlign=middle;whiteSpace=wrap;rounded=0;" vertex="1" parent="1">
          <mxGeometry x="800" y="150" width="280" height="60" as="geometry" />
        </mxCell>
        <mxCell id="VZRRbTIA94rRxhNmFZnI-80" value="Enemigos" style="rounded=1;whiteSpace=wrap;html=1;" vertex="1" parent="1">
          <mxGeometry x="680" y="160" width="80" height="40" as="geometry" />
        </mxCell>
        <mxCell id="VZRRbTIA94rRxhNmFZnI-81" value="" style="endArrow=classic;html=1;rounded=0;entryX=0;entryY=0.5;entryDx=0;entryDy=0;exitX=1;exitY=0.5;exitDx=0;exitDy=0;" edge="1" parent="1" source="VZRRbTIA94rRxhNmFZnI-44" target="VZRRbTIA94rRxhNmFZnI-80">
          <mxGeometry width="50" height="50" relative="1" as="geometry">
            <mxPoint x="730" y="230" as="sourcePoint" />
            <mxPoint x="770" y="310" as="targetPoint" />
          </mxGeometry>
        </mxCell>
        <mxCell id="VZRRbTIA94rRxhNmFZnI-82" value="Jefes" style="rounded=1;whiteSpace=wrap;html=1;" vertex="1" parent="1">
          <mxGeometry x="680" y="240" width="80" height="40" as="geometry" />
        </mxCell>
        <mxCell id="VZRRbTIA94rRxhNmFZnI-85" value="" style="endArrow=classic;html=1;rounded=0;entryX=0;entryY=0.5;entryDx=0;entryDy=0;exitX=1;exitY=0.5;exitDx=0;exitDy=0;" edge="1" parent="1" source="VZRRbTIA94rRxhNmFZnI-44" target="VZRRbTIA94rRxhNmFZnI-82">
          <mxGeometry width="50" height="50" relative="1" as="geometry">
            <mxPoint x="700" y="310" as="sourcePoint" />
            <mxPoint x="760" y="470" as="targetPoint" />
          </mxGeometry>
        </mxCell>
        <mxCell id="VZRRbTIA94rRxhNmFZnI-87" value="&lt;br&gt;&lt;div&gt;5 Jefes&lt;/div&gt;&lt;div&gt;- &quot;Padre Espina&quot; - Monstruo Espina: Cotra-Atque&lt;/div&gt;&lt;div&gt;- &quot;Obispo Serpico&quot; - Monstruo Finanzas: Ataque con mucho rango, e incrementa suerte.&lt;/div&gt;&lt;div&gt;- &quot;Frai Corvus&quot; - Poseido: Consume vida para hacer un ataque mas fuerte.&lt;/div&gt;&lt;div&gt;- &quot;Galad&quot;: Política. Baja Defensa y Vida. Incrementa Ataque, Velocidad y Suerte.&lt;/div&gt;" style="text;html=1;align=center;verticalAlign=middle;whiteSpace=wrap;rounded=0;" vertex="1" parent="1">
          <mxGeometry x="800" y="220" width="280" height="140" as="geometry" />
        </mxCell>
        <mxCell id="VZRRbTIA94rRxhNmFZnI-88" value="Voces" style="rounded=1;whiteSpace=wrap;html=1;" vertex="1" parent="1">
          <mxGeometry x="420" y="800" width="80" height="40" as="geometry" />
        </mxCell>
        <mxCell id="VZRRbTIA94rRxhNmFZnI-90" value="" style="endArrow=classic;html=1;rounded=0;exitX=1;exitY=0.5;exitDx=0;exitDy=0;entryX=0;entryY=0.5;entryDx=0;entryDy=0;" edge="1" parent="1" source="VZRRbTIA94rRxhNmFZnI-3" target="VZRRbTIA94rRxhNmFZnI-19">
          <mxGeometry width="50" height="50" relative="1" as="geometry">
            <mxPoint x="390" y="720" as="sourcePoint" />
            <mxPoint x="430" y="840" as="targetPoint" />
          </mxGeometry>
        </mxCell>
        <mxCell id="VZRRbTIA94rRxhNmFZnI-91" value="&lt;div align=&quot;left&quot;&gt;Escena Principal&lt;/div&gt;&lt;div align=&quot;left&quot;&gt;5 x Escena Pre-pela para cada jefe&lt;/div&gt;&lt;div align=&quot;left&quot;&gt;&quot;El Misionero&quot;&lt;/div&gt;&lt;div align=&quot;left&quot;&gt;Final&lt;/div&gt;" style="text;html=1;align=left;verticalAlign=middle;whiteSpace=wrap;rounded=0;" vertex="1" parent="1">
          <mxGeometry x="520" y="870" width="195" height="80" as="geometry" />
        </mxCell>
        <mxCell id="VZRRbTIA94rRxhNmFZnI-93" value="Iconos" style="rounded=1;whiteSpace=wrap;html=1;" vertex="1" parent="1">
          <mxGeometry x="680" y="400" width="80" height="40" as="geometry" />
        </mxCell>
        <mxCell id="VZRRbTIA94rRxhNmFZnI-95" value="" style="endArrow=classic;html=1;rounded=0;" edge="1" parent="1" source="VZRRbTIA94rRxhNmFZnI-36" target="VZRRbTIA94rRxhNmFZnI-93">
          <mxGeometry width="50" height="50" relative="1" as="geometry">
            <mxPoint x="750" y="490" as="sourcePoint" />
            <mxPoint x="790" y="490" as="targetPoint" />
          </mxGeometry>
        </mxCell>
      </root>
    </mxGraphModel>
  </diagram>
</mxfile>
